<?xml version="1.0" standalone="no"?>
<!DOCTYPE svg PUBLIC "-//W3C//DTD SVG 20010904//EN"
 "http://www.w3.org/TR/2001/REC-SVG-20010904/DTD/svg10.dtd">
<svg version="1.0" xmlns="http://www.w3.org/2000/svg"
 width="512.000000pt" height="512.000000pt" viewBox="0 0 512.000000 512.000000"
 preserveAspectRatio="xMidYMid meet">

<g transform="translate(0.000000,512.000000) scale(0.100000,-0.100000)"
fill="#000000" stroke="none">
<path d="M2475 5110 c-22 -4 -65 -18 -95 -30 -106 -42 -2246 -932 -2286 -951
-53 -25 -84 -68 -90 -127 -5 -40 -1 -53 22 -89 35 -53 82 -73 169 -73 l65 0 0
-360 c0 -282 3 -368 14 -393 17 -41 66 -83 107 -92 l32 -7 -7 -66 c-29 -281
-51 -863 -61 -1646 l-7 -449 -25 -20 c-41 -33 -53 -76 -53 -192 l0 -105 -67 0
c-86 0 -142 -30 -172 -93 -18 -36 -21 -62 -21 -160 0 -126 7 -157 48 -201 57
-60 -124 -56 2512 -56 2636 0 2455 -4 2512 56 41 44 48 75 48 201 0 98 -3 124
-21 159 -29 60 -77 88 -164 94 l-70 5 -5 115 c-5 119 -13 146 -54 177 l-24 19
-6 460 c-11 770 -34 1369 -62 1640 l-7 62 32 7 c41 9 90 51 107 92 11 25 14
111 14 393 l0 360 65 0 c124 0 190 54 190 154 -1 63 -30 107 -89 135 -55 26
-2224 927 -2304 958 -70 26 -184 37 -247 23z m157 -173 c24 -8 536 -218 1136
-468 l1092 -454 -1150 -3 c-633 -1 -1668 -1 -2300 0 l-1150 3 1081 450 c594
248 1104 458 1132 467 64 21 101 22 159 5z m2058 -1267 l0 -170 -2130 0 -2130
0 0 170 0 170 2130 0 2130 0 0 -170z m-3750 -425 l0 -85 -255 0 -255 0 0 85 0
85 255 0 255 0 0 -85z m600 -35 c3 -63 11 -125 17 -136 19 -34 69 -72 104 -79
l32 -7 -7 -66 c-28 -275 -49 -841 -62 -1685 l-6 -387 -297 2 -296 3 -2 325
c-4 702 -38 1571 -69 1776 -4 28 -1 32 23 37 48 11 90 43 112 89 17 36 21 63
21 146 l0 102 213 -2 212 -3 5 -115z m680 35 l0 -85 -255 0 -255 0 0 85 0 85
255 0 255 0 0 -85z m510 -17 c0 -126 19 -175 84 -213 24 -14 51 -25 60 -25 14
0 16 -6 12 -27 -29 -147 -65 -1082 -69 -1778 l-2 -330 -255 0 -255 0 -2 325
c-4 702 -38 1571 -69 1776 -4 28 -1 32 23 37 48 11 90 43 112 89 17 36 21 63
21 146 l0 102 170 0 170 0 0 -102z m680 17 l0 -85 -255 0 -255 0 0 85 0 85
255 0 255 0 0 -85z m600 -17 c0 -83 4 -110 21 -146 23 -46 64 -78 112 -89 24
-5 27 -10 23 -32 -9 -45 -25 -267 -35 -476 -19 -387 -24 -555 -30 -1090 l-6
-540 -296 -3 -297 -2 -6 407 c-12 804 -34 1390 -62 1665 l-7 66 32 7 c17 4 45
18 62 32 50 42 59 71 59 186 0 57 3 107 7 110 3 4 100 7 215 7 l208 0 0 -102z
m680 17 l0 -85 -255 0 -255 0 0 85 0 85 255 0 255 0 0 -85z m-3910 -263 c0 -4
4 -43 10 -87 29 -243 60 -1120 60 -1712 l0 -333 -170 0 -170 0 5 423 c7 505
22 1058 35 1292 10 177 29 391 35 413 5 13 195 18 195 4z m1280 0 c0 -4 4 -43
10 -87 29 -243 60 -1120 60 -1712 l0 -333 -170 0 -170 0 5 423 c7 505 22 1058
35 1292 10 177 29 391 35 413 5 13 195 18 195 4z m1202 -57 c30 -263 55 -949
60 -1640 l3 -430 -167 -3 -168 -2 0 360 c0 649 33 1529 66 1743 l6 38 96 -3
97 -3 7 -60z m1280 0 c30 -263 55 -949 60 -1640 l3 -430 -167 -3 -168 -2 0
360 c0 649 33 1529 66 1743 l6 38 96 -3 97 -3 7 -60z m148 -2330 l0 -85 -2130
0 -2130 0 0 85 0 85 2130 0 2130 0 0 -85z m260 -340 l0 -85 -2390 0 -2390 0 0
85 0 85 2390 0 2390 0 0 -85z"/>
<path d="M2510 4766 c-286 -112 -1029 -431 -1042 -447 -21 -24 -23 -77 -5
-100 30 -39 23 -39 1097 -39 1074 0 1067 0 1097 39 18 23 16 76 -4 100 -18 21
-1029 448 -1082 456 -14 2 -42 -2 -61 -9z m349 -288 l296 -123 -298 -3 c-163
-1 -431 -1 -594 0 l-298 3 290 121 c160 67 294 122 299 123 5 0 142 -54 305
-121z"/>
</g>
</svg>
