<?xml version="1.0" standalone="no"?>
<!DOCTYPE svg PUBLIC "-//W3C//DTD SVG 20010904//EN"
 "http://www.w3.org/TR/2001/REC-SVG-20010904/DTD/svg10.dtd">
<svg version="1.0" xmlns="http://www.w3.org/2000/svg"
 width="512.000000pt" height="512.000000pt" viewBox="0 0 512.000000 512.000000"
 preserveAspectRatio="xMidYMid meet">

<g transform="translate(0.000000,512.000000) scale(0.100000,-0.100000)"
fill="#000000" stroke="none">
<path d="M1020 4990 c-17 -17 -20 -33 -20 -110 0 -77 3 -93 20 -110 30 -30 83
-27 109 6 30 39 30 169 0 208 -26 33 -79 36 -109 6z"/>
<path d="M511 4774 c-12 -15 -21 -35 -21 -46 0 -25 116 -147 146 -154 34 -9
63 4 79 37 22 42 11 71 -55 133 -48 46 -65 56 -94 56 -25 0 -40 -7 -55 -26z"/>
<path d="M1482 4736 c-70 -72 -77 -101 -37 -141 40 -40 69 -33 141 37 56 53
64 66 64 98 0 46 -25 70 -72 70 -30 0 -44 -9 -96 -64z"/>
<path d="M977 4629 c-95 -22 -211 -108 -261 -193 -67 -114 -74 -269 -18 -387
88 -183 297 -280 488 -224 78 23 132 56 187 114 124 133 150 318 68 479 -82
160 -286 253 -464 211z m182 -155 c60 -17 125 -76 155 -137 82 -174 -47 -377
-239 -377 -243 0 -359 306 -175 463 75 64 159 81 259 51z"/>
<path d="M3618 4570 c-32 -9 -1321 -851 -1361 -888 -43 -41 -49 -78 -45 -303
l3 -206 29 -37 c40 -54 77 -66 196 -66 l100 0 0 -440 0 -440 -187 0 c-178 0
-458 -12 -605 -26 l-68 -6 0 94 0 94 93 65 c86 60 92 67 95 103 7 79 -63 101
-144 46 l-44 -31 0 79 0 78 93 65 c86 60 92 67 95 103 7 79 -63 101 -144 46
l-44 -31 0 61 c0 51 -4 65 -25 85 -13 14 -36 25 -50 25 -14 0 -37 -11 -50 -25
-21 -20 -25 -34 -25 -85 l0 -61 -44 31 c-75 51 -146 33 -146 -36 0 -41 12 -55
101 -115 l89 -60 0 -80 0 -80 -44 31 c-26 17 -57 30 -75 30 -53 0 -85 -52 -65
-105 4 -9 47 -43 95 -76 l89 -60 0 -99 c0 -117 26 -101 -205 -125 -88 -9 -236
-27 -330 -41 -93 -13 -170 -24 -172 -24 -2 0 -3 36 -3 79 l0 80 83 57 c98 68
107 78 107 120 0 23 -8 39 -26 53 -35 28 -51 27 -107 -9 -26 -17 -50 -30 -53
-30 -3 0 -4 35 -2 78 l3 77 84 57 c96 65 101 71 101 115 0 22 -8 38 -26 52
-35 28 -51 27 -107 -9 -26 -16 -50 -30 -52 -30 -3 0 -5 26 -5 58 0 48 -4 62
-23 80 -33 31 -80 29 -106 -4 -15 -20 -21 -41 -21 -80 0 -30 -2 -54 -5 -54 -2
0 -26 14 -52 30 -56 36 -72 37 -107 9 -18 -14 -26 -30 -26 -52 0 -44 5 -50
101 -115 l84 -57 3 -77 c2 -43 1 -78 -2 -78 -3 0 -27 14 -53 30 -56 36 -72 37
-107 9 -18 -14 -26 -30 -26 -52 0 -44 5 -50 101 -115 l84 -57 3 -97 c3 -96 2
-98 -20 -98 -13 0 -132 -22 -266 -49 -277 -55 -318 -73 -359 -150 l-23 -45 2
-772 3 -772 30 -43 c18 -26 50 -53 80 -68 l49 -26 2396 0 2395 0 50 25 c32 16
61 41 80 68 l30 44 3 770 c2 768 2 771 -19 815 -34 70 -94 102 -251 133 l-58
11 0 550 0 549 100 0 c119 0 156 12 196 66 l29 37 0 227 0 227 -27 34 c-16 22
-127 101 -285 204 -142 93 -436 286 -653 429 -217 142 -411 265 -430 272 -40
15 -63 16 -102 4z m710 -573 l642 -421 0 -178 0 -178 -90 0 -90 0 0 119 c0
110 -2 122 -22 145 -13 14 -210 148 -438 297 -644 422 -605 399 -666 399 -49
0 -60 -6 -230 -116 -99 -64 -216 -141 -261 -170 -115 -75 -134 -111 -85 -166
34 -39 67 -25 322 142 135 88 252 159 261 157 8 -3 230 -145 492 -317 l477
-312 0 -699 0 -699 -23 5 c-13 4 -100 19 -193 34 l-169 28 -5 389 c-5 370 -6
391 -26 424 -11 19 -35 45 -54 57 l-33 23 -469 0 c-520 0 -502 2 -555 -67
l-28 -36 -3 -340 -3 -340 -52 7 c-29 3 -116 6 -194 6 l-143 0 0 604 0 603 97
64 c113 75 133 94 133 128 0 35 -37 71 -73 71 -33 0 -256 -138 -288 -179 -16
-20 -19 -41 -19 -142 l0 -119 -90 0 -90 0 0 178 0 179 652 426 c358 234 656
424 662 420 6 -3 300 -195 654 -426z m-228 -1547 c0 -198 -1 -360 -3 -360 -1
0 -72 9 -157 19 -156 20 -421 45 -605 59 l-100 7 -3 318 -2 317 435 0 435 0 0
-360z m-725 -434 c467 -38 923 -100 1335 -182 168 -33 230 -49 244 -64 11 -11
17 -22 14 -26 -4 -3 -46 -1 -95 5 -161 20 -425 40 -668 52 -270 13 -1024 7
-1250 -10 -696 -53 -1244 -144 -1765 -293 -96 -28 -187 -56 -202 -64 -53 -27
-48 -107 7 -130 26 -10 44 -8 140 22 710 219 1591 334 2552 334 448 0 929 -26
1236 -66 l47 -7 0 -46 0 -47 -312 -12 c-1723 -66 -3201 -479 -4145 -1159
l-102 -73 -94 0 c-108 0 -155 12 -162 43 -3 12 -4 156 -3 321 l3 298 140 74
c77 40 205 101 285 135 80 33 153 70 163 81 39 45 7 118 -52 118 -35 0 -211
-74 -401 -169 l-140 -70 0 338 c0 314 1 339 18 354 12 11 100 33 243 61 512
102 1044 167 1629 200 182 10 1146 -3 1335 -18z m1595 -739 l0 -62 -187 -38
c-321 -65 -476 -105 -495 -128 -38 -45 -5 -119 53 -119 15 0 91 16 170 35 121
29 437 95 454 95 3 0 5 -36 5 -80 0 -79 -1 -81 -27 -91 -319 -120 -819 -363
-1163 -565 l-127 -74 -569 2 -569 3 168 83 c328 162 738 319 1162 447 227 68
256 88 224 159 -24 52 -49 52 -244 -8 -585 -178 -1095 -386 -1512 -615 l-131
-71 -753 2 -754 3 100 66 c658 434 1695 771 2840 923 400 53 856 88 1233 94
l122 2 0 -63z m-5 -984 c-10 -40 -44 -43 -534 -43 -464 0 -466 1 -441 20 67
52 684 350 915 442 l60 24 3 -210 c1 -116 0 -221 -3 -233z"/>
<path d="M3613 3799 c-181 -35 -288 -221 -224 -389 28 -74 73 -125 143 -159
224 -112 476 86 418 328 -36 149 -189 250 -337 220z m144 -181 c73 -68 70
-157 -7 -222 -25 -21 -42 -26 -85 -26 -43 0 -60 5 -85 26 -39 33 -60 74 -60
115 0 38 33 100 63 119 54 34 131 29 174 -12z"/>
<path d="M322 4290 c-22 -9 -42 -46 -42 -76 0 -8 11 -26 25 -39 22 -23 32 -25
113 -25 80 0 91 2 110 23 29 31 28 72 -3 102 -22 22 -32 25 -102 24 -43 0 -88
-4 -101 -9z"/>
<path d="M1626 4279 c-33 -26 -36 -79 -6 -109 17 -17 33 -20 110 -20 105 0
130 15 130 74 0 56 -35 76 -130 76 -63 0 -82 -4 -104 -21z"/>
<path d="M625 3871 c-28 -12 -135 -126 -135 -145 0 -49 55 -95 97 -82 29 9
131 118 138 148 6 22 1 33 -23 58 -32 31 -43 34 -77 21z"/>
<path d="M1458 3865 c-30 -17 -44 -51 -34 -83 10 -29 131 -142 154 -142 36 0
72 38 72 77 0 29 -9 45 -57 94 -64 64 -94 76 -135 54z"/>
<path d="M1022 3677 c-19 -20 -22 -35 -22 -111 0 -79 2 -89 25 -111 28 -29 45
-31 84 -10 34 17 41 38 41 133 0 64 -3 76 -25 97 -31 32 -74 33 -103 2z"/>
</g>
</svg>
